<?xml version="1.0" encoding="iso-8859-1"?>
<!-- Generator: Adobe Illustrator 19.0.0, SVG Export Plug-In . SVG Version: 6.00 Build 0)  -->
<svg version="1.1" id="Layer_1" xmlns="http://www.w3.org/2000/svg" xmlns:xlink="http://www.w3.org/1999/xlink" x="0px" y="0px"
	 viewBox="0 0 512 512" style="enable-background:new 0 0 512 512;" xml:space="preserve">
<polygon style="fill:#4BCDB2;" points="512,448.891 286.14,207.832 217.904,276.068 450.513,510.378 "/>
<g>
	<path style="fill:#266659;" d="M318.344,318.839c-2.269,0-4.538-0.865-6.27-2.597c-3.463-3.463-3.463-9.077,0-12.538l28.228-28.228
		c3.464-3.463,9.077-3.463,12.539,0c3.463,3.463,3.463,9.077,0,12.538l-28.228,28.228
		C322.882,317.972,320.612,318.839,318.344,318.839z"/>
	<path style="fill:#266659;" d="M367.639,352.787c-2.269,0-4.538-0.865-6.27-2.597c-3.463-3.463-3.463-9.077,0-12.538l20.554-20.554
		c3.464-3.463,9.077-3.463,12.539,0c3.463,3.463,3.463,9.077,0,12.538l-20.554,20.554
		C372.177,351.922,369.908,352.787,367.639,352.787z"/>
	<path style="fill:#266659;" d="M401.589,402.084c-2.269,0-4.538-0.865-6.27-2.597c-3.463-3.463-3.463-9.077,0-12.538l28.228-28.228
		c3.464-3.463,9.077-3.463,12.539,0c3.463,3.463,3.463,9.077,0,12.538l-28.228,28.228
		C406.127,401.219,403.857,402.084,401.589,402.084z"/>
	<path style="fill:#266659;" d="M450.885,436.034c-2.269,0-4.538-0.865-6.27-2.597c-3.463-3.463-3.463-9.077,0-12.538l20.554-20.554
		c3.464-3.463,9.077-3.463,12.539,0c3.463,3.463,3.463,9.077,0,12.538l-20.554,20.554
		C455.424,435.167,453.154,436.034,450.885,436.034z"/>
</g>
<path style="fill:#60FEE6;" d="M95.93,88.862v197.318v200.025L491.93,88.862H95.93z M172.232,235.413v-65.536h131.525
	L172.232,301.848V235.413z"/>
<path d="M135.412,139.431c-4.898,0-8.866-3.97-8.866-8.866v-39.92c0-4.897,3.969-8.866,8.866-8.866s8.866,3.97,8.866,8.866v39.921
	C144.278,135.462,140.308,139.431,135.412,139.431z"/>
<g>
	<path style="fill:#3EAC92;" d="M189.33,128.58c-4.898,0-8.866-3.97-8.866-8.866V90.645c0-4.897,3.969-8.866,8.866-8.866
		c4.898,0,8.866,3.97,8.866,8.866v29.068C198.196,124.61,194.227,128.58,189.33,128.58z"/>
	<path style="fill:#3EAC92;" d="M243.249,139.431c-4.898,0-8.866-3.97-8.866-8.866v-39.92c0-4.897,3.969-8.866,8.866-8.866
		c4.898,0,8.866,3.97,8.866,8.866v39.921C252.115,135.462,248.145,139.431,243.249,139.431z"/>
	<path style="fill:#3EAC92;" d="M297.166,128.58c-4.898,0-8.866-3.97-8.866-8.866V90.645c0-4.897,3.969-8.866,8.866-8.866
		s8.866,3.97,8.866,8.866v29.068C306.032,124.61,302.064,128.58,297.166,128.58z"/>
	<path style="fill:#3EAC92;" d="M351.084,139.431c-4.898,0-8.866-3.97-8.866-8.866v-39.92c0-4.897,3.969-8.866,8.866-8.866
		c4.898,0,8.866,3.97,8.866,8.866v39.921C359.95,135.462,355.982,139.431,351.084,139.431z"/>
	<path style="fill:#3EAC92;" d="M405.003,128.58c-4.898,0-8.866-3.97-8.866-8.866V90.645c0-4.897,3.969-8.866,8.866-8.866
		c4.898,0,8.866,3.97,8.866,8.866v29.068C413.869,124.61,409.899,128.58,405.003,128.58z"/>
</g>
<path style="fill:#D3FDF9;" d="M174.369,358.882c-2.269,0-4.538-0.865-6.27-2.597c-3.463-3.463-3.463-9.077,0-12.538
	l177.404-177.404c3.465-3.463,9.078-3.463,12.539,0c3.463,3.463,3.463,9.077,0,12.538L180.639,356.284
	C178.908,358.015,176.638,358.882,174.369,358.882z"/>
<polygon style="fill:#4BCDB2;" points="206.063,267.902 0,61.838 62.383,1.622 271.298,202.673 "/>
<g>
	<path style="fill:#266659;" d="M64.921,71.228c-2.269,0-4.538-0.865-6.27-2.597c-3.463-3.463-3.463-9.077,0-12.538l28.228-28.229
		c3.464-3.463,9.077-3.463,12.539,0s3.463,9.077,0,12.538L71.192,68.631C69.46,70.362,67.19,71.228,64.921,71.228z"/>
	<path style="fill:#266659;" d="M110.047,101.006c-2.27,0-4.538-0.865-6.27-2.597c-3.463-3.463-3.463-9.077,0.001-12.538
		l20.556-20.554c3.463-3.464,9.077-3.463,12.538,0c3.463,3.463,3.463,9.077-0.001,12.538l-20.554,20.554
		C114.586,100.141,112.316,101.006,110.047,101.006z"/>
	<path style="fill:#266659;" d="M139.826,146.132c-2.269,0-4.538-0.865-6.27-2.597c-3.463-3.463-3.463-9.077,0-12.538l28.228-28.228
		c3.464-3.463,9.077-3.463,12.539,0s3.463,9.077,0,12.538l-28.228,28.228C144.365,145.267,142.095,146.132,139.826,146.132z"/>
	<path style="fill:#266659;" d="M184.952,175.911c-2.269,0-4.538-0.865-6.27-2.597c-3.463-3.463-3.463-9.077,0-12.538l20.554-20.554
		c3.464-3.463,9.077-3.463,12.539,0s3.463,9.077,0,12.538l-20.554,20.554C189.49,175.045,187.221,175.911,184.952,175.911z"/>
	<path style="fill:#266659;" d="M214.732,221.038c-2.269,0-4.538-0.865-6.27-2.597c-3.463-3.463-3.463-9.077,0-12.538l28.228-28.228
		c3.464-3.463,9.077-3.463,12.539,0s3.463,9.077,0,12.538l-28.228,28.228C219.269,220.171,217.001,221.038,214.732,221.038z"/>
</g>
<g>
</g>
<g>
</g>
<g>
</g>
<g>
</g>
<g>
</g>
<g>
</g>
<g>
</g>
<g>
</g>
<g>
</g>
<g>
</g>
<g>
</g>
<g>
</g>
<g>
</g>
<g>
</g>
<g>
</g>
</svg>
